<svg width="68" height="68" viewBox="0 0 68 68" fill="none" xmlns="http://www.w3.org/2000/svg">
<g opacity="0.4">
<path d="M60.8694 6.42053C60.6088 6.15774 60.2987 5.94916 59.957 5.80681C59.6153 5.66447 59.2489 5.59119 58.8788 5.59119C58.5086 5.59119 58.1422 5.66447 57.8005 5.80681C57.4588 5.94916 57.1487 6.15774 56.8881 6.42053L40.6544 22.6823V18.2243C40.6544 17.4807 40.359 16.7676 39.8332 16.2418C39.3074 15.716 38.5942 15.4206 37.8506 15.4206C37.107 15.4206 36.3939 15.716 35.8681 16.2418C35.3423 16.7676 35.0469 17.4807 35.0469 18.2243V29.4393C35.0513 29.8057 35.1275 30.1677 35.2712 30.5047C35.5557 31.1898 36.1001 31.7343 36.7852 32.0188C37.1223 32.1624 37.4842 32.2386 37.8506 32.2431H49.0656C49.8092 32.2431 50.5224 31.9477 51.0482 31.4219C51.574 30.8961 51.8694 30.1829 51.8694 29.4393C51.8694 28.6957 51.574 27.9826 51.0482 27.4568C50.5224 26.931 49.8092 26.6356 49.0656 26.6356H44.6077L60.8694 10.4019C61.1322 10.1412 61.3408 9.83111 61.4831 9.48945C61.6255 9.14779 61.6988 8.78132 61.6988 8.41119C61.6988 8.04107 61.6255 7.6746 61.4831 7.33294C61.3408 6.99127 61.1322 6.68118 60.8694 6.42053ZM30.5048 35.2711C30.1677 35.1275 29.8058 35.0512 29.4394 35.0468H18.2244C17.4808 35.0468 16.7676 35.3422 16.2418 35.868C15.716 36.3938 15.4206 37.107 15.4206 37.8506C15.4206 38.5942 15.716 39.3073 16.2418 39.8331C16.7676 40.3589 17.4808 40.6543 18.2244 40.6543H22.6823L6.42059 56.888C6.1578 57.1487 5.94922 57.4588 5.80688 57.8004C5.66453 58.1421 5.59125 58.5086 5.59125 58.8787C5.59125 59.2488 5.66453 59.6153 5.80688 59.957C5.94922 60.2986 6.1578 60.6087 6.42059 60.8694C6.68124 61.1321 6.99134 61.3407 7.333 61.4831C7.67466 61.6254 8.04113 61.6987 8.41125 61.6987C8.78138 61.6987 9.14785 61.6254 9.48951 61.4831C9.83117 61.3407 10.1413 61.1321 10.4019 60.8694L26.6356 44.6076V49.0656C26.6356 49.8092 26.931 50.5223 27.4568 51.0481C27.9826 51.5739 28.6958 51.8693 29.4394 51.8693C30.183 51.8693 30.8961 51.5739 31.4219 51.0481C31.9477 50.5223 32.2431 49.8092 32.2431 49.0656V37.8506C32.2387 37.4842 32.1625 37.1222 32.0188 36.7851C31.7343 36.1 31.1899 35.5556 30.5048 35.2711Z" fill="#1A1A1A"/>
</g>
</svg>
