<svg width="21" height="20" viewBox="0 0 21 20" fill="none" xmlns="http://www.w3.org/2000/svg">
<g opacity="0.4">
<path d="M9.41666 9.99999H2.74999C2.52898 9.99999 2.31701 10.0878 2.16073 10.2441C2.00445 10.4003 1.91666 10.6123 1.91666 10.8333V17.5C1.91666 17.721 2.00445 17.933 2.16073 18.0892C2.31701 18.2455 2.52898 18.3333 2.74999 18.3333H9.41666C9.63767 18.3333 9.84963 18.2455 10.0059 18.0892C10.1622 17.933 10.25 17.721 10.25 17.5V10.8333C10.25 10.6123 10.1622 10.4003 10.0059 10.2441C9.84963 10.0878 9.63767 9.99999 9.41666 9.99999ZM8.58332 16.6667H3.58332V11.6667H8.58332V16.6667ZM18.5167 2.18332C18.4321 1.9797 18.2703 1.81789 18.0667 1.73332C17.9665 1.69062 17.8589 1.66797 17.75 1.66666H12.75C12.529 1.66666 12.317 1.75445 12.1607 1.91073C12.0045 2.06701 11.9167 2.27898 11.9167 2.49999C11.9167 2.721 12.0045 2.93297 12.1607 3.08925C12.317 3.24553 12.529 3.33332 12.75 3.33332H15.7417L11.325 7.74166C11.2469 7.81913 11.1849 7.91129 11.1426 8.01284C11.1003 8.11439 11.0785 8.22331 11.0785 8.33332C11.0785 8.44333 11.1003 8.55225 11.1426 8.6538C11.1849 8.75535 11.2469 8.84752 11.325 8.92499C11.4025 9.0031 11.4946 9.06509 11.5962 9.1074C11.6977 9.14971 11.8066 9.17149 11.9167 9.17149C12.0267 9.17149 12.1356 9.14971 12.2371 9.1074C12.3387 9.06509 12.4309 9.0031 12.5083 8.92499L16.9167 4.50832V7.49999C16.9167 7.721 17.0045 7.93297 17.1607 8.08925C17.317 8.24553 17.529 8.33332 17.75 8.33332C17.971 8.33332 18.183 8.24553 18.3392 8.08925C18.4955 7.93297 18.5833 7.721 18.5833 7.49999V2.49999C18.582 2.39109 18.5594 2.28351 18.5167 2.18332Z" fill="#1A1A1A"/>
</g>
</svg>
