<svg width="20" height="20" viewBox="0 0 20 20" fill="none" xmlns="http://www.w3.org/2000/svg">
<g opacity="0.4">
<path d="M15.8334 1.66667H4.16675C3.50371 1.66667 2.86782 1.93006 2.39898 2.3989C1.93014 2.86775 1.66675 3.50363 1.66675 4.16667V15.8333C1.66675 16.4964 1.93014 17.1323 2.39898 17.6011C2.86782 18.0699 3.50371 18.3333 4.16675 18.3333H15.8334C15.9705 18.3314 16.1071 18.3175 16.2417 18.2917L16.4917 18.2333H16.5501H16.5917L16.9001 18.1167L17.0084 18.0583C17.0917 18.0083 17.1834 17.9667 17.2667 17.9083C17.378 17.8265 17.4838 17.7374 17.5834 17.6417L17.6417 17.5667C17.7236 17.4838 17.7988 17.3946 17.8667 17.3L17.9417 17.1917C18 17.0989 18.0501 17.0013 18.0917 16.9C18.1146 16.86 18.1341 16.8182 18.1501 16.775C18.1917 16.675 18.2167 16.5667 18.2501 16.4583V16.3333C18.2973 16.1705 18.3253 16.0027 18.3334 15.8333V4.16667C18.3334 3.50363 18.07 2.86775 17.6012 2.3989C17.1323 1.93006 16.4965 1.66667 15.8334 1.66667ZM4.16675 16.6667C3.94573 16.6667 3.73377 16.5789 3.57749 16.4226C3.42121 16.2663 3.33341 16.0544 3.33341 15.8333V12.2417L6.07508 9.49167C6.15255 9.41356 6.24472 9.35157 6.34627 9.30926C6.44782 9.26695 6.55674 9.24517 6.66675 9.24517C6.77676 9.24517 6.88568 9.26695 6.98723 9.30926C7.08878 9.35157 7.18095 9.41356 7.25841 9.49167L14.4251 16.6667H4.16675ZM16.6667 15.8333C16.666 15.9361 16.6462 16.0378 16.6084 16.1333C16.5894 16.174 16.5671 16.213 16.5417 16.25C16.5195 16.2853 16.4944 16.3187 16.4667 16.35L12.0084 11.8917L12.7417 11.1583C12.8192 11.0802 12.9114 11.0182 13.0129 10.9759C13.1145 10.9336 13.2234 10.9118 13.3334 10.9118C13.4434 10.9118 13.5523 10.9336 13.6539 10.9759C13.7554 11.0182 13.8476 11.0802 13.9251 11.1583L16.6667 13.9083V15.8333ZM16.6667 11.55L15.1001 10C14.6232 9.5475 13.9908 9.29524 13.3334 9.29524C12.676 9.29524 12.0436 9.5475 11.5667 10L10.8334 10.7333L8.43341 8.33334C7.95652 7.88083 7.32416 7.62857 6.66675 7.62857C6.00933 7.62857 5.37698 7.88083 4.90008 8.33334L3.33341 9.88334V4.16667C3.33341 3.94566 3.42121 3.7337 3.57749 3.57742C3.73377 3.42114 3.94573 3.33334 4.16675 3.33334H15.8334C16.0544 3.33334 16.2664 3.42114 16.4227 3.57742C16.579 3.7337 16.6667 3.94566 16.6667 4.16667V11.55Z" fill="#1A1A1A"/>
</g>
</svg>
