<svg width="20" height="20" viewBox="0 0 20 20" fill="none" xmlns="http://www.w3.org/2000/svg">
<g opacity="0.4">
<path d="M3.0917 13.575C3.01244 13.4991 2.91899 13.4397 2.8167 13.4C2.61381 13.3167 2.38625 13.3167 2.18336 13.4C2.08107 13.4397 1.98762 13.4991 1.90836 13.575C1.8325 13.6543 1.77303 13.7477 1.73336 13.85C1.66955 14.0018 1.65211 14.169 1.68326 14.3307C1.7144 14.4923 1.79273 14.6411 1.90836 14.7583C1.98937 14.8319 2.08238 14.8911 2.18336 14.9333C2.28311 14.9774 2.39097 15.0002 2.50003 15.0002C2.60909 15.0002 2.71695 14.9774 2.8167 14.9333C2.91769 14.8911 3.0107 14.8319 3.0917 14.7583C3.20733 14.6411 3.28566 14.4923 3.3168 14.3307C3.34795 14.169 3.33051 14.0018 3.2667 13.85C3.22704 13.7477 3.16756 13.6543 3.0917 13.575ZM5.83336 6.66667H17.5C17.721 6.66667 17.933 6.57887 18.0893 6.42259C18.2456 6.26631 18.3334 6.05435 18.3334 5.83333C18.3334 5.61232 18.2456 5.40036 18.0893 5.24408C17.933 5.0878 17.721 5 17.5 5H5.83336C5.61235 5 5.40039 5.0878 5.24411 5.24408C5.08783 5.40036 5.00003 5.61232 5.00003 5.83333C5.00003 6.05435 5.08783 6.26631 5.24411 6.42259C5.40039 6.57887 5.61235 6.66667 5.83336 6.66667ZM3.0917 9.40833C2.97451 9.2927 2.8257 9.21437 2.66404 9.18323C2.50238 9.15208 2.33512 9.16952 2.18336 9.23333C2.08238 9.27553 1.98937 9.33472 1.90836 9.40833C1.8325 9.48759 1.77303 9.58104 1.73336 9.68333C1.68928 9.78308 1.6665 9.89094 1.6665 10C1.6665 10.1091 1.68928 10.2169 1.73336 10.3167C1.77557 10.4177 1.83476 10.5107 1.90836 10.5917C1.98937 10.6653 2.08238 10.7245 2.18336 10.7667C2.28311 10.8108 2.39097 10.8335 2.50003 10.8335C2.60909 10.8335 2.71695 10.8108 2.8167 10.7667C2.91769 10.7245 3.0107 10.6653 3.0917 10.5917C3.16531 10.5107 3.2245 10.4177 3.2667 10.3167C3.31079 10.2169 3.33356 10.1091 3.33356 10C3.33356 9.89094 3.31079 9.78308 3.2667 9.68333C3.22704 9.58104 3.16756 9.48759 3.0917 9.40833ZM17.5 9.16667H5.83336C5.61235 9.16667 5.40039 9.25446 5.24411 9.41074C5.08783 9.56702 5.00003 9.77899 5.00003 10C5.00003 10.221 5.08783 10.433 5.24411 10.5893C5.40039 10.7455 5.61235 10.8333 5.83336 10.8333H17.5C17.721 10.8333 17.933 10.7455 18.0893 10.5893C18.2456 10.433 18.3334 10.221 18.3334 10C18.3334 9.77899 18.2456 9.56702 18.0893 9.41074C17.933 9.25446 17.721 9.16667 17.5 9.16667ZM3.0917 5.24167C3.01244 5.1658 2.91899 5.10633 2.8167 5.06667C2.66494 5.00285 2.49768 4.98542 2.33602 5.01656C2.17436 5.04771 2.02555 5.12604 1.90836 5.24167C1.83476 5.32267 1.77557 5.41568 1.73336 5.51667C1.68928 5.61642 1.6665 5.72427 1.6665 5.83333C1.6665 5.94239 1.68928 6.05025 1.73336 6.15C1.77557 6.25099 1.83476 6.344 1.90836 6.425C1.98937 6.49861 2.08238 6.5578 2.18336 6.6C2.33512 6.66382 2.50238 6.68125 2.66404 6.65011C2.8257 6.61896 2.97451 6.54063 3.0917 6.425C3.16531 6.344 3.2245 6.25099 3.2667 6.15C3.31079 6.05025 3.33356 5.94239 3.33356 5.83333C3.33356 5.72427 3.31079 5.61642 3.2667 5.51667C3.2245 5.41568 3.16531 5.32267 3.0917 5.24167ZM17.5 13.3333H5.83336C5.61235 13.3333 5.40039 13.4211 5.24411 13.5774C5.08783 13.7337 5.00003 13.9457 5.00003 14.1667C5.00003 14.3877 5.08783 14.5996 5.24411 14.7559C5.40039 14.9122 5.61235 15 5.83336 15H17.5C17.721 15 17.933 14.9122 18.0893 14.7559C18.2456 14.5996 18.3334 14.3877 18.3334 14.1667C18.3334 13.9457 18.2456 13.7337 18.0893 13.5774C17.933 13.4211 17.721 13.3333 17.5 13.3333Z" fill="#1A1A1A"/>
</g>
</svg>
